<svg version="1.1" xmlns="http://www.w3.org/2000/svg" xmlns:xlink="http://www.w3.org/1999/xlink" viewBox="0 0 226 226"><g fill="none" fill-rule="nonzero" stroke="none" stroke-width="1" stroke-linecap="butt" stroke-linejoin="miter" stroke-miterlimit="10" stroke-dasharray="" stroke-dashoffset="0" font-family="none" font-weight="none" font-size="none" text-anchor="none" style="mix-blend-mode: normal"><path d="M0,226v-226h226v226z" fill="none"></path><g><path d="M184.94922,201.28125v17.21484h-112.55859v-17.21484h42.81641h25.60156z" fill="#00acea"></path><path d="M137.09637,44.1009c35.67445,3.59305 64.0657,33.98387 64.0657,70.84129c0,35.55969 -26.25043,65.10301 -60.36672,70.36457c-32.47301,5.03442 -64.17443,-12.80424 -76.72523,-43.17395h14.20887c10.10776,19.13968 29.96012,31.13158 51.6048,31.17211c32.19176,0 58.44219,-26.17098 58.44219,-58.36273c0,-31.93133 -25.81344,-57.9434 -57.55055,-58.35391z" fill="#00acea"></path><path d="M146.89559,13.07887l-7.5348,14.88422l-0.04855,0.0927l-11.09254,-5.61469l0.01766,-0.03973l7.5348,-14.88422z" fill="#fedb41"></path><path d="M137.09637,44.1009l-6.32094,12.48738l-2.01723,3.98148l-20.79906,-10.52754l15.255,-30.1348l5.00555,2.53367l11.09254,5.61469l4.70098,2.37918z" fill="#00efd1"></path><path d="M140.80859,200.83984v0.44141h-25.60156v-16.33203l0.0618,-0.31781c8.39968,1.75248 17.04593,1.98123 25.52652,0.67535l0.01324,0.08387z" fill="#00efd1"></path><rect x="-39.15665" y="269.41553" transform="rotate(-63.155) scale(0.44141,0.44141)" width="48.452" height="52.812" fill="#fedb41"></rect><path d="M78.27898,142.13281h-14.20887h-39.35137v-12.80078h17.65625h60.91406h17.65625v12.80078z" fill="#00efd1"></path><path d="M103.28906,128.89063v0.44141h-60.91406v-0.44141v-12.35937h60.91406z" fill="#00acea"></path><path d="M186.44073,163.79924c17.5852,-20.4157 22.83098,-48.71168 13.73258,-74.07424c-9.0984,-25.36256 -31.13468,-43.87155 -57.68738,-48.45352l3.0819,-6.08832l0.66211,0.33547c1.73963,0.88188 3.86478,0.18654 4.74666,-1.55309c0.88188,-1.73963 0.18654,-3.86478 -1.55309,-4.74666l-5.36529,-2.71686l5.98812,-11.82969c0.42427,-0.83827 0.497,-1.81106 0.20208,-2.7031c-0.29492,-0.89204 -0.93316,-1.62978 -1.77349,-2.04996l-11.12344,-5.56172c-1.73829,-0.86935 -3.85233,-0.17059 -4.73011,1.56346l-5.95898,11.7723l-5.67075,-2.86914c-1.73779,-0.86711 -3.84963,-0.16816 -4.727,1.56447c-0.87736,1.73264 -0.19091,3.84857 1.53651,4.73616l0.66829,0.33856l-23.31905,46.06604c-0.423,0.83563 -0.49671,1.80507 -0.20491,2.69505c0.2918,0.88998 0.92521,1.62757 1.76087,2.05051l20.79906,10.52754c0.83563,0.423 1.80507,0.49671 2.69505,0.20491c0.88998,-0.2918 1.62757,-0.92521 2.05051,-1.76087l10.65643,-21.05155c28.80529,1.52109 51.8873,25.63379 51.8873,54.74718c0,30.23633 -24.63047,54.83148 -54.91094,54.83148c-18.18537,-0.00528 -35.1815,-9.03914 -45.35935,-24.10961h36.42087c1.95026,0 3.53125,-1.58099 3.53125,-3.53125v-12.80078c0,-1.95026 -1.58099,-3.53125 -3.53125,-3.53125h-14.125v-9.26953c0,-1.95026 -1.58099,-3.53125 -3.53125,-3.53125h-60.91406c-1.95026,0 -3.53125,1.58099 -3.53125,3.53125v9.26953h-14.125c-1.95026,0 -3.53125,1.58099 -3.53125,3.53125v12.80078c0,1.95026 1.58099,3.53125 3.53125,3.53125h37.03398c9.38383,20.81796 27.77432,36.20028 49.92305,41.75703v10.32891h-39.28516c-1.95026,0 -3.53125,1.58099 -3.53125,3.53125v17.21484c0,1.95026 1.58099,3.53125 3.53125,3.53125h112.55859c1.95026,0 3.53125,-1.58099 3.53125,-3.53125v-17.21484c0,-1.95026 -1.58099,-3.53125 -3.53125,-3.53125h-40.60937v-9.48317c16.36503,-3.24456 31.18039,-11.85474 42.10089,-24.46759zM137.33561,12.24682l4.80647,2.40346l-4.38493,8.66171l-4.79411,-2.42773zM139.26676,31.99268l-12.06363,23.83196l-14.49799,-7.33794l12.06452,-23.83373zM117.54648,74.90664l-14.5002,-7.33838l6.46925,-12.78004l14.49799,7.33794zM45.90625,120.0625h53.85156v5.73828h-53.85156zM28.25,132.86328h89.16406v5.73828h-89.16406zM69.59299,145.66406h6.603c11.00803,19.26955 31.49563,31.16503 53.6878,31.17211c34.17235,0 61.97344,-27.76445 61.97344,-61.89398c-0.04712,-31.68958 -23.98504,-58.24243 -55.50021,-61.56293l2.77203,-5.47653c31.82353,4.38438 56.17954,30.53725 58.29145,62.59189c2.11191,32.05464 -18.60232,61.17695 -49.57553,69.69867c-30.97322,8.52172 -63.66936,-5.90568 -78.25197,-34.52923zM181.41797,214.96484h-105.49609v-10.15234h105.49609zM118.73828,197.75v-8.91332c3.68927,0.55491 7.41474,0.83421 11.14551,0.83558c2.46084,0 4.93492,-0.12404 7.39355,-0.36593v8.44366z" fill="#083863"></path></g></g></svg>